<svg xmlns="http://www.w3.org/2000/svg" viewBox="0 0 512 512"><defs><style>.cls-1{fill:#c5e7ee;}.cls-2{fill:#71c7c2;}.cls-3{fill:#fff;}.cls-4{fill:#2f5855;}</style></defs><title>favicon_senes</title><g id="fav"><g id="tree"><path class="cls-1" d="M229.5,278.68s-37.12-7.15-61.64,34.25C167.86,312.93,213.23,321.92,229.5,278.68Z"/><path class="cls-1" d="M224.53,265.58s-21.19-31.31-67.8-19.37C156.73,246.21,182.45,284.65,224.53,265.58Z"/><path class="cls-1" d="M176,223.69s-19.69-32.26-66.82-22.53C109.16,201.16,133.06,240.77,176,223.69Z"/><path class="cls-2" d="M202.84,204.56s-9.16-36.67-57-41.46C145.8,163.1,156.78,208,202.84,204.56Z"/><path class="cls-2" d="M255.08,236.5s-.51-37.79-46-53.42C209.06,183.08,209.45,229.33,255.08,236.5Z"/><path class="cls-2" d="M244.89,177.87s-1-37.79-46.72-52.82C198.17,125.05,199.17,171.29,244.89,177.87Z"/><path class="cls-1" d="M281.89,303.08s17.29-41.52,57.87-85.18c0,0-47.5,33.14-72.3,70.24-24.79-37.1-72.29-70.24-72.29-70.24C235.75,261.56,253,303.08,253,303.08c3,39.39-5.31,65.5-5.31,65.5l19.73-2.15,19.74,2.15S278.89,342.47,281.89,303.08Z"/><path class="cls-1" d="M305.43,278.68s37.12-7.15,61.64,34.25C367.07,312.93,321.7,321.92,305.43,278.68Z"/><path class="cls-1" d="M310.4,265.58s21.19-31.31,67.8-19.37C378.2,246.21,352.47,284.65,310.4,265.58Z"/><path class="cls-1" d="M359,223.69s19.69-32.26,66.82-22.53C425.77,201.16,401.87,240.77,359,223.69Z"/><path class="cls-2" d="M332.09,204.56s9.16-36.67,57-41.46C389.13,163.1,378.15,208,332.09,204.56Z"/><path class="cls-2" d="M279.85,236.5s.51-37.79,46-53.42C325.87,183.08,325.48,229.33,279.85,236.5Z"/><path class="cls-2" d="M290,177.87s1-37.79,46.71-52.82C336.75,125.05,335.76,171.29,290,177.87Z"/><path class="cls-2" d="M267.05,214.93s-24.86-28.48-1.41-70.5C265.64,144.43,296.23,179.12,267.05,214.93Z"/><path class="cls-2" d="M266.85,276.32s-16.12-18.47-.92-45.72C265.93,230.6,285.77,253.1,266.85,276.32Z"/></g><g id="e2"><path class="cls-2" d="M337.05,382.15l-1.73,3.33c-5.82,6.08-9.62,10.77-10,11.28l-2.38,2.95c-11.36-3.88-24.26-8.26-42.75-8.95-.76,0-1.51-.05-2.27-.05a66.49,66.49,0,0,0-8.74.59l.37-1c1.31,0,2.63.09,4,.09A181.19,181.19,0,0,0,334,380.06C336,381.36,337.05,382.15,337.05,382.15Z"/><path class="cls-2" d="M355.93,411.33l2.38,0a180.93,180.93,0,0,1-42.66,11.6q-3.16.48-6.38.81a184.76,184.76,0,0,1-51.51-1.61l.11-.28,9.38-25.44a67.48,67.48,0,0,1,12.72-.84c16.21.61,27.83,4.1,38.33,7.67C330.56,407.34,341.27,411.55,355.93,411.33Z"/><path class="cls-2" d="M329,399.75s26.83-33.47,49.71-39.13c0,0-23.88,26.09-37.89,43.31Z"/><path class="cls-2" d="M360.28,407.38l-13.78-2.47s27.07-41.84,62-51.67C408.53,353.24,380,378.59,360.28,407.38Z"/><path class="cls-2" d="M435,352.46c-.72,1-1.48,2-2.26,2.91-7.41,4.93-25.72,18.17-40,37.35A183.15,183.15,0,0,1,367,407.5l-1.06-.12S417,341.47,435,352.46Z"/><path class="cls-2" d="M381,355.32c38.29-28.76,62-72.65,62-121.82,0-86.64-75.91-156.88-169.54-156.88-56.76,0-107,25.82-137.78,65.46A183.05,183.05,0,1,1,437.86,348.6a13.44,13.44,0,0,0-7.57-2.17c-5.69,0-10.33-.25-17.49,4.8l-.67-.12C405.27,346.79,386.48,352.58,381,355.32Z"/><path class="cls-2" d="M280,395.54c16.21.61,27.83,4.1,38.33,7.67l-60.43,18.61-4.9,1.5a149,149,0,0,1-33.77-8.61c13.15-7.32,31-15.64,48.05-18.33A67.48,67.48,0,0,1,280,395.54Z"/><path class="cls-2" d="M338,382.66l-2.69,2.82c-5.82,6.08-9.62,10.77-10,11.28l-2.38,2.95c-11.36-3.88-24.26-8.26-42.75-8.95-.76,0-1.51-.05-2.27-.05a66.49,66.49,0,0,0-8.74.59c-20.12,2.48-41.32,12.82-55.63,21.08-46.6-20-72.44-57.67-72.44-57.67,20-4,29,9.25,29,9.25S190.3,392.53,217,392.53,251,377,251,377s-8.45,2.75-29.66,6.16-29.58-13.63-29.58-13.63-1.05-.34,20.6,0c14.52.22,24.16-5,37.35-8.83a96.32,96.32,0,0,1,17.55-3.38l.45,0c1.64-.15,3.33-.25,5.09-.32a54.74,54.74,0,0,1,11.9,1c20.25,3.75,41.54,16.92,49.31,22.09C336,381.36,338,382.66,338,382.66Z"/><path class="cls-2" d="M233.75,360.34S212.4,333.7,194.19,329.2c0,0,19,20.76,30.16,34.46Z"/><path class="cls-2" d="M219.84,364.45s-21.54-33.29-49.34-41.13c0,0,22.71,20.17,38.38,43.09Z"/><path class="cls-2" d="M204.37,366.41s-42.29-54.64-55.81-43.09c0,0,25.07,14.89,39.56,39C188.12,362.29,192,367.82,204.37,366.41Z"/></g><g id="e1"><path class="cls-3" d="M378.74,360.62s-23.88,26.09-37.89,43.31L329,399.75S355.86,366.28,378.74,360.62Z"/><path class="cls-3" d="M436.08,353.24s-1.23.73-3.34,2.13c-7.41,4.93-25.72,18.17-40,37.35a113.21,113.21,0,0,0-6.4,9.49s-4.59,6.62-19.37,5.29l-1.06-.12s51-65.91,69.06-54.92A6.89,6.89,0,0,1,436.08,353.24Z"/><path class="cls-3" d="M360.28,407.38l-13.78-2.47s27.07-41.84,62-51.67C408.53,353.24,380,378.59,360.28,407.38Z"/><path class="cls-4" d="M409.07,404.3s-25.45,35.92-59,35.92c-25.24,0-36.69-11.06-40.81-16.51a18.78,18.78,0,0,1-1.91-3s2.55.83,8.29,2.18c6,1.4,15.38,3.37,29,5.57,26.66,4.29,37.2-17.14,37.2-17.14s1.23-.41-23.52,0l-2.39,0c-14.65.22-25.36-4-37.62-8.12-10.5-3.57-22.12-7.06-38.33-7.67a66.68,66.68,0,0,0-12.72.85c-17,2.68-34.9,11-48.05,18.32-6.74,3.75-12.25,7.22-15.78,9.54C128.47,394.71,75.9,325.92,75.9,245.78c0-107.08,93.82-193.89,209.54-193.89,70.16,0,132.26,31.91,170.28,80.88A226,226,0,0,0,266,29.75C141,29.75,39.73,131.05,39.73,256S141,482.25,266,482.25a226.54,226.54,0,0,0,38.89-3.36c89.57-11.82,140.63-86.22,140.63-86.22C420.3,387.64,409.07,404.3,409.07,404.3Z"/><path class="cls-4" d="M378.74,360.62s-23.88,26.09-37.89,43.31L329,399.75S355.86,366.28,378.74,360.62Z"/><path class="cls-4" d="M408.53,353.24S380,378.59,360.28,407.38l-13.78-2.47S373.57,363.07,408.53,353.24Z"/><path class="cls-4" d="M436.08,353.24s-1.23.73-3.34,2.13c-7.41,4.93-25.72,18.17-40,37.35a113.21,113.21,0,0,0-6.4,9.49s-4.59,6.62-19.37,5.29l-1.06-.12s51-65.91,69.06-54.92A6.89,6.89,0,0,1,436.08,353.24Z"/></g></g></svg>