<svg id="_1" data-name="1" xmlns="http://www.w3.org/2000/svg" viewBox="0 0 2573.72 2573.72"><defs><style>.cls-1{fill:#6f7978;}.cls-2{fill:#74c4c0;}.cls-3{fill:#c5e7ee;}.cls-4{fill:#71c7c2;}.cls-5{fill:#fff;}.cls-6{fill:#2f5855;}</style></defs><title>1</title><g id="LOGO_SENES"><g id="senes_life_care_pessoas" data-name="senes life care pessoas"><path class="cls-1" d="M583,2026c0,12.26-8.58,20.54-20.08,20.54-6.43,0-11.95-2.76-15.32-8V2061h-5.44v-55.17h5.21v8c3.29-5.37,8.89-8.28,15.55-8.28C574.42,2005.53,583,2013.81,583,2026Zm-5.44,0c0-9.35-6.51-15.71-15-15.71s-15,6.36-15,15.71,6.44,15.71,15,15.71S577.56,2035.42,577.56,2026Z"/><path class="cls-1" d="M644.54,2027.68H610.82c.61,8.43,7,14,15.86,14a15.9,15.9,0,0,0,12.34-5.28l3.07,3.52c-3.61,4.29-9.2,6.59-15.56,6.59-12.57,0-21.15-8.58-21.15-20.54s8.35-20.46,19.69-20.46,19.54,8.36,19.54,20.46C644.61,2026.45,644.54,2027.07,644.54,2027.68Zm-33.72-4.06H639.4c-.69-7.9-6.43-13.41-14.33-13.41S611.51,2015.72,610.82,2023.62Z"/><path class="cls-1" d="M665.46,2041.55l2.45-4.29a24.34,24.34,0,0,0,14.33,4.52c7.66,0,10.8-2.61,10.8-6.59,0-10.5-26.13-2.22-26.13-18.16,0-6.59,5.67-11.5,15.94-11.5,5.21,0,10.88,1.46,14.26,3.76l-2.38,4.37a20.6,20.6,0,0,0-11.88-3.45c-7.28,0-10.5,2.83-10.5,6.66,0,10.89,26.14,2.69,26.14,18.17,0,7-6.14,11.49-16.63,11.49C675.19,2046.53,668.75,2044.39,665.46,2041.55Z"/><path class="cls-1" d="M718.26,2041.55l2.45-4.29a24.34,24.34,0,0,0,14.33,4.52c7.66,0,10.8-2.61,10.8-6.59,0-10.5-26.13-2.22-26.13-18.16,0-6.59,5.67-11.5,15.94-11.5,5.21,0,10.88,1.46,14.25,3.76l-2.37,4.37a20.62,20.62,0,0,0-11.88-3.45c-7.28,0-10.5,2.83-10.5,6.66,0,10.89,26.13,2.69,26.13,18.17,0,7-6.13,11.49-16.63,11.49C728,2046.53,721.55,2044.39,718.26,2041.55Z"/><path class="cls-1" d="M772.59,2026c0-12,8.73-20.46,20.53-20.46s20.47,8.51,20.47,20.46-8.66,20.54-20.47,20.54S772.59,2038,772.59,2026Zm35.48,0c0-9.42-6.36-15.71-15-15.71s-15,6.29-15,15.71,6.44,15.71,15,15.71S808.07,2035.42,808.07,2026Z"/><path class="cls-1" d="M870.22,2021.17v25H865v-6.29c-2.46,4.14-7.21,6.67-13.87,6.67-9.12,0-14.72-4.75-14.72-11.72,0-6.21,4-11.42,15.56-11.42h12.8v-2.45c0-6.9-3.91-10.66-11.42-10.66A20.53,20.53,0,0,0,840,2015l-2.46-4.06c4.07-3.45,10-5.44,16.4-5.44C864.32,2005.53,870.22,2010.74,870.22,2021.17ZM864.78,2034v-6.59H852.13c-7.81,0-10.34,3.06-10.34,7.2,0,4.68,3.75,7.59,10.19,7.59C858.11,2042.24,862.63,2039.33,864.78,2034Z"/><path class="cls-1" d="M894.74,2041.55l2.45-4.29a24.34,24.34,0,0,0,14.33,4.52c7.66,0,10.81-2.61,10.81-6.59,0-10.5-26.14-2.22-26.14-18.16,0-6.59,5.68-11.5,15.94-11.5,5.21,0,10.89,1.46,14.26,3.76l-2.38,4.37a20.6,20.6,0,0,0-11.88-3.45c-7.28,0-10.49,2.83-10.49,6.66,0,10.89,26.13,2.69,26.13,18.17,0,7-6.13,11.49-16.63,11.49C904.47,2046.53,898,2044.39,894.74,2041.55Z"/><path class="cls-1" d="M984.47,2026c0-12,8.74-20.46,20.77-20.46,6.82,0,12.57,2.68,15.79,8l-4.06,2.76a13.71,13.71,0,0,0-11.73-6c-8.81,0-15.25,6.29-15.25,15.71s6.44,15.71,15.25,15.71a13.64,13.64,0,0,0,11.73-5.9l4.06,2.76c-3.22,5.21-9,8-15.79,8C993.21,2046.53,984.47,2038,984.47,2026Z"/><path class="cls-1" d="M1083.33,2005.84v40.31h-5.21v-7.36c-2.84,4.91-8,7.74-14.49,7.74-10.27,0-17-5.75-17-17.32v-23.37h5.44v22.84c0,8.58,4.45,13,12.11,13,8.43,0,13.72-5.44,13.72-14.64v-21.15Z"/><path class="cls-1" d="M1112.68,1993.12a3.92,3.92,0,0,1,4-3.83,3.87,3.87,0,0,1,4,3.75,4,4,0,0,1-8,.08Zm1.22,12.72h5.44v40.31h-5.44Z"/><path class="cls-1" d="M1186.63,1989.29v56.86h-5.21v-8c-3.3,5.44-8.89,8.35-15.56,8.35-11.5,0-20.08-8.35-20.08-20.54s8.58-20.46,20.08-20.46c6.44,0,12,2.76,15.33,8v-24.21Zm-5.37,36.7c0-9.42-6.43-15.71-14.94-15.71s-15,6.29-15,15.71,6.44,15.71,15,15.71S1181.26,2035.42,1181.26,2026Z"/><path class="cls-1" d="M1247.55,2021.17v25h-5.21v-6.29c-2.45,4.14-7.21,6.67-13.87,6.67-9.12,0-14.72-4.75-14.72-11.72,0-6.21,4-11.42,15.56-11.42h12.8v-2.45c0-6.9-3.91-10.66-11.42-10.66a20.53,20.53,0,0,0-13.41,4.75l-2.45-4.06c4.06-3.45,10-5.44,16.4-5.44C1241.65,2005.53,1247.55,2010.74,1247.55,2021.17Zm-5.44,12.87v-6.59h-12.65c-7.81,0-10.34,3.06-10.34,7.2,0,4.68,3.75,7.59,10.19,7.59C1235.44,2042.24,1240,2039.33,1242.11,2034Z"/><path class="cls-1" d="M1314.75,2022.77v23.38h-5.44v-22.84c0-8.51-4.44-12.87-12.1-12.87-8.66,0-14.1,5.36-14.1,14.56v21.15h-5.45v-40.31h5.22v7.43c2.91-4.9,8.35-7.74,15.32-7.74C1308,2005.53,1314.75,2011.2,1314.75,2022.77Z"/><path class="cls-1" d="M1381.81,1989.29v56.86h-5.22v-8c-3.29,5.44-8.88,8.35-15.55,8.35-11.5,0-20.08-8.35-20.08-20.54s8.58-20.46,20.08-20.46c6.44,0,12,2.76,15.33,8v-24.21Zm-5.37,36.7c0-9.42-6.44-15.71-14.94-15.71s-15,6.29-15,15.71,6.44,15.71,15,15.71S1376.44,2035.42,1376.44,2026Z"/><path class="cls-1" d="M1408.24,2026c0-12,8.74-20.46,20.54-20.46s20.46,8.51,20.46,20.46-8.66,20.54-20.46,20.54S1408.24,2038,1408.24,2026Zm35.48,0c0-9.42-6.36-15.71-14.94-15.71s-15,6.29-15,15.71,6.44,15.71,15,15.71S1443.72,2035.42,1443.72,2026Z"/><path class="cls-1" d="M1547.87,1989.29v56.86h-5.22v-8c-3.29,5.44-8.88,8.35-15.55,8.35-11.5,0-20.08-8.35-20.08-20.54s8.58-20.46,20.08-20.46c6.44,0,12,2.76,15.32,8v-24.21Zm-5.37,36.7c0-9.42-6.44-15.71-14.94-15.71s-15,6.29-15,15.71,6.43,15.71,15,15.71S1542.5,2035.42,1542.5,2026Z"/><path class="cls-1" d="M1613.46,2027.68h-33.72c.62,8.43,7,14,15.87,14a15.92,15.92,0,0,0,12.34-5.28l3.06,3.52c-3.6,4.29-9.2,6.59-15.56,6.59-12.56,0-21.15-8.58-21.15-20.54s8.36-20.46,19.7-20.46,19.54,8.36,19.54,20.46C1613.54,2026.45,1613.46,2027.07,1613.46,2027.68Zm-33.72-4.06h28.59c-.69-7.9-6.44-13.41-14.33-13.41S1580.43,2015.72,1579.74,2023.62Z"/><path class="cls-1" d="M1716.22,2026c0,12.26-8.58,20.54-20.07,20.54-6.44,0-12-2.76-15.33-8V2061h-5.44v-55.17h5.21v8c3.29-5.37,8.89-8.28,15.56-8.28C1707.64,2005.53,1716.22,2013.81,1716.22,2026Zm-5.44,0c0-9.35-6.51-15.71-15-15.71s-15,6.36-15,15.71,6.44,15.71,15,15.71S1710.78,2035.42,1710.78,2026Z"/><path class="cls-1" d="M1777.76,2027.68H1744c.61,8.43,7,14,15.86,14a15.89,15.89,0,0,0,12.34-5.28l3.07,3.52c-3.6,4.29-9.2,6.59-15.56,6.59-12.57,0-21.15-8.58-21.15-20.54s8.35-20.46,19.7-20.46,19.54,8.36,19.54,20.46C1777.84,2026.45,1777.76,2027.07,1777.76,2027.68Zm-33.72-4.06h28.59c-.69-7.9-6.44-13.41-14.33-13.41S1744.73,2015.72,1744,2023.62Z"/><path class="cls-1" d="M1798.68,2041.55l2.45-4.29a24.34,24.34,0,0,0,14.33,4.52c7.66,0,10.81-2.61,10.81-6.59,0-10.5-26.14-2.22-26.14-18.16,0-6.59,5.68-11.5,15.94-11.5,5.22,0,10.89,1.46,14.26,3.76l-2.38,4.37a20.6,20.6,0,0,0-11.88-3.45c-7.28,0-10.49,2.83-10.49,6.66,0,10.89,26.13,2.69,26.13,18.17,0,7-6.13,11.49-16.63,11.49C1808.41,2046.53,1802,2044.39,1798.68,2041.55Z"/><path class="cls-1" d="M1851.48,2041.55l2.45-4.29a24.34,24.34,0,0,0,14.33,4.52c7.66,0,10.81-2.61,10.81-6.59,0-10.5-26.14-2.22-26.14-18.16,0-6.59,5.67-11.5,15.94-11.5,5.22,0,10.89,1.46,14.26,3.76l-2.38,4.37a20.6,20.6,0,0,0-11.88-3.45c-7.28,0-10.49,2.83-10.49,6.66,0,10.89,26.13,2.69,26.13,18.17,0,7-6.13,11.49-16.63,11.49C1861.21,2046.53,1854.77,2044.39,1851.48,2041.55Z"/><path class="cls-1" d="M1905.81,2026c0-12,8.74-20.46,20.54-20.46s20.46,8.51,20.46,20.46-8.66,20.54-20.46,20.54S1905.81,2038,1905.81,2026Zm35.48,0c0-9.42-6.36-15.71-14.94-15.71s-15,6.29-15,15.71,6.43,15.71,15,15.71S1941.29,2035.42,1941.29,2026Z"/><path class="cls-1" d="M2003.44,2021.17v25h-5.21v-6.29c-2.45,4.14-7.2,6.67-13.87,6.67-9.12,0-14.72-4.75-14.72-11.72,0-6.21,4-11.42,15.56-11.42H1998v-2.45c0-6.9-3.91-10.66-11.42-10.66a20.55,20.55,0,0,0-13.41,4.75l-2.45-4.06c4.06-3.45,10-5.44,16.4-5.44C1997.54,2005.53,2003.44,2010.74,2003.44,2021.17ZM1998,2034v-6.59h-12.65c-7.81,0-10.34,3.06-10.34,7.2,0,4.68,3.75,7.59,10.19,7.59C1991.33,2042.24,1995.85,2039.33,1998,2034Z"/><path class="cls-1" d="M2028,2041.55l2.45-4.29a24.34,24.34,0,0,0,14.33,4.52c7.67,0,10.81-2.61,10.81-6.59,0-10.5-26.13-2.22-26.13-18.16,0-6.59,5.67-11.5,15.94-11.5,5.21,0,10.88,1.46,14.25,3.76l-2.37,4.37a20.62,20.62,0,0,0-11.88-3.45c-7.28,0-10.5,2.83-10.5,6.66,0,10.89,26.13,2.69,26.13,18.17,0,7-6.13,11.49-16.63,11.49C2037.69,2046.53,2031.26,2044.39,2028,2041.55Z"/><path class="cls-2" d="M1087.7,1832.31l-16.47,77.34a19.79,19.79,0,0,0-.57,4.58c0,4,1.86,5.3,5.87,5.3,5.58,0,10.74-5.44,12.89-12.6h6c-8.16,23.34-22.34,26.49-30.07,26.49-8.59,0-15.32-5.16-15.32-17.19a46.51,46.51,0,0,1,1.14-9.3l15.32-71.75Z"/><path class="cls-2" d="M1128.37,1861l-10.31,48.69a19.79,19.79,0,0,0-.57,4.58c0,4,1.86,5.3,5.87,5.3,5.58,0,10.74-5.44,12.89-12.6h6c-8.16,23.34-22.34,26.49-30.07,26.49-8.59,0-15.32-5.16-15.32-17.19a46.51,46.51,0,0,1,1.14-9.3l9.74-46Zm-6.44-30.51a11.49,11.49,0,0,1,11.45,11.46,11.36,11.36,0,0,1-11.45,11.31,11.24,11.24,0,0,1-11.32-11.31A11.37,11.37,0,0,1,1121.93,1830.45Z"/><path class="cls-2" d="M1192.81,1846.63a35.9,35.9,0,0,0,.29-3.86c0-3.3-2.58-4.87-5.44-4.87-3.15,0-8,2.15-10,11.74L1175.2,1861h10.45l-1,5.72h-10.6L1157.59,1944c-4.3,20.47-16.19,24.34-25.64,24.34-8.73,0-16.9-6.16-16.9-15.47,0-13.17,11-17.32,24.64-21.48l17.32-81.77c4.3-20.48,16.62-24.34,26.07-24.34,8.73,0,16.9,6.16,16.9,15.46a35.69,35.69,0,0,1-.43,5.87Zm-64.15,109c3,0,6.3-2.73,8.16-11.17l1.86-8.31c-9,3-15.75,7-15.75,14.75C1122.93,1952.89,1125.51,1955.62,1128.66,1955.62Z"/><path class="cls-2" d="M1219.74,1919.81c5.44,0,12.31-3.58,16.9-7.59-3,16.33-13.32,21.2-24.78,21.2-13.32,0-22.19-6.59-22.19-22.77,0-16.47,9.3-51,38.66-51,12.75,0,15.75,6.58,15.75,13.74,0,16.62-15.75,29.22-32.93,30.22-.15,1.43-.29,3-.29,4.3C1210.86,1917,1214.73,1919.81,1219.74,1919.81Zm9.74-52.55c-7.16,0-14.32,15.89-17.33,29.5,11.17-.58,20.91-11.6,20.91-23.63C1233.06,1869.55,1232.2,1867.26,1229.48,1867.26Z"/><path class="cls-2" d="M1334,1873.13c0-3.58-1.29-5.87-4-5.87-9,0-18.33,26.2-18.33,42.1,0,9.74,3.44,12,10.31,12,11.31,0,18.19-6.3,25.35-14.46h4.87c-8.17,13.17-20.34,26.49-39.38,26.49-13.47,0-22.35-6.59-22.35-22.77,0-16.61,9.46-51,38.53-51,12.74,0,15.89,6.58,15.89,13.17,0,7-3.43,10.46-7.59,10.46a9.23,9.23,0,0,1-5-1.72A25.23,25.23,0,0,0,1334,1873.13Z"/><path class="cls-2" d="M1424.67,1861l-10.31,48.69a19.79,19.79,0,0,0-.57,4.58c0,4,1.86,6.16,5.87,6.16,5.58,0,9.45-6.3,11.6-13.46h6c-8.16,23.34-21,26.49-28.78,26.49-8,0-13.18-4.58-14-13.18-4.44,6.59-11.17,13.18-21.33,13.18-9.74,0-19-6-19-23.06,0-19.33,11.88-50.12,36.8-50.12,8.17,0,11.6,3.15,11.6,7.3v1l1.58-7.59Zm-49.41,47.4c0,11,4.59,11.17,7.16,11.17,4.16,0,10.17-4.3,11.89-12.6l6.87-32.37a5.56,5.56,0,0,0-5.87-5.44C1383.14,1869.12,1375.26,1894.9,1375.26,1908.36Z"/><path class="cls-2" d="M1470.21,1861l-1.86,8.87c5-4.29,10.45-8.87,17.33-8.87,6.44,0,9.88,5.29,9.88,10.74,0,5-3.3,10.45-10.31,10.45-8,0-4-9.45-8.31-9.45s-6.87,2.15-10.45,5.44L1455,1932.56h-20.62l15.18-71.6Z"/><path class="cls-2" d="M1530.36,1919.81c5.44,0,12.31-3.58,16.9-7.59-3,16.33-13.32,21.2-24.78,21.2-13.32,0-22.2-6.59-22.2-22.77,0-16.47,9.31-51,38.67-51,12.75,0,15.75,6.58,15.75,13.74,0,16.62-15.75,29.22-32.94,30.22-.14,1.43-.28,3-.28,4.3C1521.48,1917,1525.35,1919.81,1530.36,1919.81Zm9.74-52.55c-7.17,0-14.33,15.89-17.33,29.5,11.17-.58,20.91-11.6,20.91-23.63C1543.68,1869.55,1542.82,1867.26,1540.1,1867.26Z"/><g id="SENES"><path class="cls-2" d="M788.43,1486.83s-25.94-62-102.31-57.64S586.69,1530.06,641.45,1569s125.36,93.66,139.77,131.13S811.48,1841.3,676,1917.67s-240.64-14.41-240.64-14.41-54.75-44.67,51.88-109.51c0,0-4.39,103.66,118.65,95.1s91.73-126.8,51.38-162.83-171.47-87.89-129.68-223.34c0,0,49-151.3,252.16-123.92,0,0,74.93,15.85,51.87,70.6C831.65,1449.36,812.92,1481.06,788.43,1486.83Z"/><path class="cls-2" d="M2104.75,1486.83s-25.94-62-102.31-57.64S1903,1530.06,1957.77,1569s125.37,93.66,139.78,131.13,30.26,141.21-105.19,217.58-240.64-14.41-240.64-14.41-54.76-44.67,51.87-109.51c0,0-4.39,103.66,118.65,95.1s91.73-126.8,51.38-162.83-171.47-87.89-129.68-223.34c0,0,49-151.3,252.16-123.92,0,0,74.93,15.85,51.88,70.6C2148,1449.36,2129.25,1481.06,2104.75,1486.83Z"/><path class="cls-2" d="M929.17,1728.91c-70.14-15.85-51.41-86.46-51.41-86.46s25.86-30.56,98.8-55.24c37.19-12.58,71.36-33.19,98.29-61.75,31.41-33.33,48.68-71.53,36.35-100.59-20.18-47.55-82.14-49.43-82.14-49.43S841.74,1364.35,775.46,1605s232,188.77,295.39,126.81c0,0,33.14-14.53,17.29-70C1088.14,1661.84,1009.4,1746.2,929.17,1728.91Zm4.55-274.14c40.06-52.47,76.31-20,76.31-20s27.67,54.37-38.16,99.21-62,34.69-90.15,63.13C881.72,1597.08,893.65,1507.24,933.72,1454.77Z"/><path class="cls-2" d="M1683.21,1728.91c-70.14-15.85-51.4-86.46-51.4-86.46s25.85-30.56,98.79-55.24c37.19-12.58,71.36-33.19,98.29-61.75,31.41-33.33,48.68-71.53,36.35-100.59-20.17-47.55-82.13-49.43-82.13-49.43S1595.78,1364.35,1529.5,1605s232,188.77,295.39,126.81c0,0,33.14-14.53,17.29-70C1842.18,1661.84,1763.44,1746.2,1683.21,1728.91Zm4.55-274.14c40.06-52.47,76.31-20,76.31-20s27.67,54.37-38.15,99.21-62,34.69-90.15,63.13C1635.77,1597.08,1647.69,1507.24,1687.76,1454.77Z"/><path class="cls-2" d="M1068.16,1772.55s104.82-234.31,74.87-377c0,0,121.56-54.62,112.75,22s-25.54,128.61-25.54,128.61,103.94-170.74,193.79-169.5,34.36,166.85,17.62,227.63-25.55,120.68,7,98.66c0,0,37.87-31.71,57.25-54.61,0,0,15-15,21.14,5.28s-81.92,150.63-157.67,124.21-26.43-142.07-14.1-198.32,25.55-118.8,1.76-116.16-119.79,118-170.89,272.2C1186.19,1735.56,1167.91,1802.57,1068.16,1772.55Z"/></g></g><g id="tree"><path class="cls-3" d="M1238.36,958.2s-66.42-12.81-110.31,61.28C1128.05,1019.48,1209.25,1035.57,1238.36,958.2Z"/><path class="cls-3" d="M1229.47,934.74s-37.91-56-121.34-34.66C1108.13,900.08,1154.18,968.87,1229.47,934.74Z"/><path class="cls-3" d="M1142.59,859.78S1107.35,802,1023,819.46C1023,819.46,1065.78,890.34,1142.59,859.78Z"/><path class="cls-4" d="M1190.66,825.54s-16.4-65.62-102.08-74.18C1088.58,751.36,1108.23,831.77,1190.66,825.54Z"/><path class="cls-4" d="M1284.15,882.71s-.92-67.64-82.36-95.61C1201.79,787.1,1202.48,869.88,1284.15,882.71Z"/><path class="cls-4" d="M1265.91,777.78s-1.8-67.62-83.6-94.53C1182.31,683.25,1184.08,766,1265.91,777.78Z"/><path class="cls-3" d="M1332.12,1001.86s30.94-74.3,103.56-152.44c0,0-85,59.3-129.37,125.7-44.37-66.4-129.38-125.7-129.38-125.7,72.63,78.14,103.57,152.44,103.57,152.44,5.36,70.48-9.51,117.21-9.51,117.21l35.32-3.84,35.32,3.84S1326.75,1072.34,1332.12,1001.86Z"/><path class="cls-3" d="M1374.25,958.2s66.42-12.81,110.31,61.28C1484.56,1019.48,1403.36,1035.57,1374.25,958.2Z"/><path class="cls-3" d="M1383.15,934.74s37.91-56,121.33-34.66C1504.48,900.08,1458.44,968.87,1383.15,934.74Z"/><path class="cls-3" d="M1470,859.78s35.24-57.74,119.58-40.32C1589.6,819.46,1546.83,890.34,1470,859.78Z"/><path class="cls-4" d="M1422,825.54s16.39-65.62,102.08-74.18C1524,751.36,1504.39,831.77,1422,825.54Z"/><path class="cls-4" d="M1328.47,882.71s.91-67.64,82.36-95.61C1410.83,787.1,1410.13,869.88,1328.47,882.71Z"/><path class="cls-4" d="M1346.71,777.78s1.79-67.62,83.6-94.53C1430.31,683.25,1428.53,766,1346.71,777.78Z"/><path class="cls-4" d="M1305.57,844.11s-44.48-51-2.53-126.17C1303,717.94,1357.79,780,1305.57,844.11Z"/><path class="cls-4" d="M1305.2,954s-28.84-33.05-1.63-81.82C1303.57,872.15,1339.07,912.42,1305.2,954Z"/></g><g id="e2"><path class="cls-4" d="M1430.83,1143.36l-3.08,6c-10.43,10.88-17.23,19.28-18,20.19l-4.26,5.29c-20.34-7-43.43-14.78-76.52-16-1.36-.06-2.69-.09-4-.09a118.93,118.93,0,0,0-15.65,1.06l.66-1.85c2.36.06,4.72.15,7.07.15a324.07,324.07,0,0,0,108.31-18.43C1428.86,1141.94,1430.83,1143.36,1430.83,1143.36Z"/><path class="cls-4" d="M1464.61,1195.58c1.49,0,2.91,0,4.27-.06a323.32,323.32,0,0,1-76.34,20.76q-5.67.85-11.42,1.45a330,330,0,0,1-92.17-2.87l.18-.52,16.8-45.51a119.61,119.61,0,0,1,22.76-1.51c29,1.09,49.8,7.35,68.6,13.72C1419.23,1188.45,1438.38,1196,1464.61,1195.58Z"/><path class="cls-4" d="M1416.48,1174.85s48-59.9,89-70c0,0-42.73,46.69-67.81,77.51Z"/><path class="cls-4" d="M1472.41,1188.51l-24.66-4.42s48.44-74.88,111-92.47C1558.75,1091.62,1507.65,1137,1472.41,1188.51Z"/><path class="cls-4" d="M1606.13,1090.23c-1.3,1.76-2.66,3.48-4.05,5.2-13.26,8.82-46,32.52-71.53,66.84a327,327,0,0,1-46.11,26.45c-.61-.06-1.27-.15-1.91-.21C1482.53,1188.51,1573.86,1070.56,1606.13,1090.23Z"/><path class="cls-4" d="M1509.48,1095.34c68.54-51.46,111-130,111-218,0-155.06-135.84-280.74-303.41-280.74-101.56,0-191.5,46.2-246.56,117.13,58.42-89.81,159.65-149.19,274.76-149.19,180.92,0,327.58,146.68,327.58,327.57a325.83,325.83,0,0,1-61.59,191.2,24.09,24.09,0,0,0-13.54-3.87c-10.18,0-18.49-.46-31.3,8.58l-1.2-.22C1552.91,1080.08,1519.29,1090.45,1509.48,1095.34Z"/><path class="cls-4" d="M1328.69,1167.32c29,1.09,49.8,7.35,68.6,13.72l-108.16,33.3-8.76,2.69a266.2,266.2,0,0,1-60.44-15.41c23.54-13.08,55.54-28,86-32.79A119.61,119.61,0,0,1,1328.69,1167.32Z"/><path class="cls-4" d="M1432.55,1144.27l-4.8,5c-10.43,10.88-17.23,19.28-18,20.19l-4.26,5.29c-20.34-7-43.43-14.78-76.52-16-1.36-.06-2.69-.09-4-.09a118.93,118.93,0,0,0-15.65,1.06c-36,4.44-74,22.93-99.55,37.71-83.4-35.81-129.64-103.2-129.64-103.2,35.87-7.16,51.86,16.56,51.86,16.56s36.23,51.13,84,51.13,60.8-27.77,60.8-27.77-15.11,4.93-53.06,11-53-24.39-53-24.39-1.87-.6,36.87,0c26,.4,43.24-9,66.84-15.8a170.39,170.39,0,0,1,31.4-6,5.67,5.67,0,0,0,.82-.07c2.93-.27,6-.45,9.09-.57a97.63,97.63,0,0,1,21.31,1.75c36.23,6.71,74.34,30.28,88.24,39.53C1428.86,1141.94,1432.55,1144.27,1432.55,1144.27Z"/><path class="cls-4" d="M1246,1104.32s-38.2-47.66-70.79-55.72c0,0,34,37.15,54,61.68Z"/><path class="cls-4" d="M1221.09,1111.68s-38.55-59.58-88.31-73.59c0,0,40.65,36.09,68.68,77.09Z"/><path class="cls-4" d="M1193.4,1115.18s-75.69-97.77-99.87-77.09c0,0,44.85,26.63,70.79,69.73C1164.32,1107.82,1171.18,1117.71,1193.4,1115.18Z"/></g><g id="e1"><path class="cls-5" d="M1505.44,1104.83s-42.73,46.69-67.81,77.51l-21.15-7.49S1464.49,1115,1505.44,1104.83Z"/><path class="cls-5" d="M1608.07,1091.62s-2.21,1.3-6,3.81c-13.26,8.82-46,32.52-71.53,66.84q-6.08,8.12-11.45,17s-8.22,11.84-34.66,9.46c-.61-.06-1.27-.15-1.91-.21,0,0,91.33-118,123.6-98.28A14.35,14.35,0,0,1,1608.07,1091.62Z"/><path class="cls-5" d="M1472.41,1188.51l-24.66-4.42s48.44-74.88,111-92.47C1558.75,1091.62,1507.65,1137,1472.41,1188.51Z"/><path class="cls-6" d="M1559.72,1183s-45.55,64.27-105.56,64.27c-45.18,0-65.67-19.79-73-29.55a33.72,33.72,0,0,1-3.42-5.35s4.57,1.48,14.84,3.9c10.67,2.51,27.53,6,51.86,10,47.71,7.68,66.57-30.67,66.57-30.67s2.21-.73-42.09-.06c-1.36,0-2.78,0-4.27.06-26.23.39-45.38-7.13-67.32-14.54-18.8-6.37-39.59-12.63-68.6-13.72a119.61,119.61,0,0,0-22.76,1.51c-30.46,4.81-62.46,19.71-86,32.79-12.06,6.71-21.91,12.93-28.23,17.08-134.14-52.86-228.21-176-228.21-319.39,0-191.63,167.9-347,375-347,125.56,0,236.68,57.11,304.73,144.75-72.19-111-197.3-184.37-339.57-184.37C1080,512.71,898.76,694,898.76,917.59S1080,1322.5,1303.64,1322.5a406.1,406.1,0,0,0,69.59-6c160.29-21.15,251.67-154.3,251.67-154.3C1579.81,1153.18,1559.72,1183,1559.72,1183Z"/><path class="cls-6" d="M1505.44,1104.83s-42.73,46.69-67.81,77.51l-21.15-7.49S1464.49,1115,1505.44,1104.83Z"/><path class="cls-6" d="M1558.75,1091.62s-51.1,45.36-86.34,96.89l-24.66-4.42S1496.19,1109.21,1558.75,1091.62Z"/><path class="cls-6" d="M1608.07,1091.62s-2.21,1.3-6,3.81c-13.26,8.82-46,32.52-71.53,66.84q-6.08,8.12-11.45,17s-8.22,11.84-34.66,9.46c-.61-.06-1.27-.15-1.91-.21,0,0,91.33-118,123.6-98.28A14.35,14.35,0,0,1,1608.07,1091.62Z"/></g></g></svg>